<?xml version="1.0" encoding="utf-8"?>
<!-- Generator: Adobe Illustrator 25.0.0, SVG Export Plug-In . SVG Version: 6.00 Build 0)  -->
<svg version="1.1" id="Layer_1" xmlns="http://www.w3.org/2000/svg" xmlns:xlink="http://www.w3.org/1999/xlink" x="0px" y="0px"
	 viewBox="0 0 24 24" style="enable-background:new 0 0 24 24;" xml:space="preserve">
<style type="text/css">
	.st0{fill:#FFFFFF;}
</style>
<path class="st0" d="M12,9c-1.7,0-3,1.3-3,3s1.3,3,3,3s3-1.3,3-3S13.7,9,12,9 M12,17c-2.8,0-5-2.2-5-5s2.2-5,5-5s5,2.2,5,5
	S14.8,17,12,17 M12,4.5c-4.9,0-9.2,3-11,7.5c2.4,6.1,9.2,9.1,15.3,6.7c3-1.2,5.5-3.6,6.7-6.7C21.2,7.5,16.9,4.5,12,4.5 M7,22h2v2H7
	V22 M11,22h2v2h-2V22 M15,22h2v2h-2V22z"/>
</svg>
